# xmcd
#
# Track frame offsets:
#	182
#	21055
#	54050
#
# Disc length: 1099 seconds
# Revision: 0
# Processed by: cddbd v1.5.2PL0 Copyright (c) Steve Scherf et al.
# Submitted via: dBpowerAMP V12.0
#
DISCID=15044903
DTITLE=The S.O.U.L. S.Y.S.T.E.M. introducing Michelle Visage - It's Gonna Be A Lovely Day!
DYEAR=1993
DGENRE=House
TTITLE0=It's Gonna Be A Lovely Day! [Pop Radio Edit]
TTITLE1=It's Gonna Be A Lovely Day! [Movin’ The Crowd Club Mix]
TTITLE2=It's Gonna Be A Lovely Day! [Dub House Mix III]
EXTD=
EXTT0=
EXTT1=
EXTT2=
PLAYORDER=
